<mxfile host="65bd71144e">
    <diagram id="g7HOO1qCXcZUXwY13VXM" name="Model DB">
        <mxGraphModel dx="1168" dy="863" grid="1" gridSize="10" guides="1" tooltips="1" connect="1" arrows="1" fold="1" page="1" pageScale="1" pageWidth="827" pageHeight="1169" math="0" shadow="0">
            <root>
                <mxCell id="0"/>
                <mxCell id="1" parent="0"/>
                <mxCell id="2" value="Web" style="whiteSpace=wrap;html=1;align=center;" parent="1" vertex="1">
                    <mxGeometry x="120" y="120" width="100" height="40" as="geometry"/>
                </mxCell>
                <mxCell id="16" value="Settings" style="whiteSpace=wrap;html=1;align=center;" parent="1" vertex="1">
                    <mxGeometry x="364" y="120" width="100" height="40" as="geometry"/>
                </mxCell>
                <mxCell id="17" value="" style="edgeStyle=entityRelationEdgeStyle;fontSize=12;html=1;endArrow=ERmandOne;exitX=1;exitY=0.5;exitDx=0;exitDy=0;" parent="1" source="2" target="16" edge="1">
                    <mxGeometry width="100" height="100" relative="1" as="geometry">
                        <mxPoint x="360" y="490" as="sourcePoint"/>
                        <mxPoint x="460" y="390" as="targetPoint"/>
                    </mxGeometry>
                </mxCell>
                <mxCell id="18" value="User" style="whiteSpace=wrap;html=1;align=center;" parent="1" vertex="1">
                    <mxGeometry x="110" y="240" width="100" height="40" as="geometry"/>
                </mxCell>
                <mxCell id="19" value="" style="edgeStyle=entityRelationEdgeStyle;fontSize=12;html=1;endArrow=ERmandOne;exitX=0.5;exitY=1;exitDx=0;exitDy=0;entryX=0.5;entryY=0;entryDx=0;entryDy=0;" parent="1" source="2" target="18" edge="1">
                    <mxGeometry width="100" height="100" relative="1" as="geometry">
                        <mxPoint x="230" y="150" as="sourcePoint"/>
                        <mxPoint x="490" y="150" as="targetPoint"/>
                    </mxGeometry>
                </mxCell>
                <mxCell id="20" value="Expertise" style="whiteSpace=wrap;html=1;align=center;" parent="1" vertex="1">
                    <mxGeometry x="600" y="400" width="100" height="40" as="geometry"/>
                </mxCell>
                <mxCell id="21" value="Education" style="whiteSpace=wrap;html=1;align=center;" parent="1" vertex="1">
                    <mxGeometry x="600" y="460" width="100" height="40" as="geometry"/>
                </mxCell>
                <mxCell id="22" value="Skill" style="whiteSpace=wrap;html=1;align=center;" parent="1" vertex="1">
                    <mxGeometry x="600" y="520" width="100" height="40" as="geometry"/>
                </mxCell>
                <mxCell id="23" value="Language" style="whiteSpace=wrap;html=1;align=center;" parent="1" vertex="1">
                    <mxGeometry x="600" y="580" width="100" height="40" as="geometry"/>
                </mxCell>
                <mxCell id="24" value="Interests" style="whiteSpace=wrap;html=1;align=center;" parent="1" vertex="1">
                    <mxGeometry x="600" y="640" width="100" height="40" as="geometry"/>
                </mxCell>
                <mxCell id="25" value="Project" style="whiteSpace=wrap;html=1;align=center;" parent="1" vertex="1">
                    <mxGeometry x="40" y="440" width="100" height="40" as="geometry"/>
                </mxCell>
                <mxCell id="26" value="Recomendation" style="whiteSpace=wrap;html=1;align=center;" parent="1" vertex="1">
                    <mxGeometry x="180" y="440" width="100" height="40" as="geometry"/>
                </mxCell>
                <mxCell id="27" value="Address" style="whiteSpace=wrap;html=1;align=center;" parent="1" vertex="1">
                    <mxGeometry x="600" y="160" width="100" height="40" as="geometry"/>
                </mxCell>
                <mxCell id="28" value="Contact" style="whiteSpace=wrap;html=1;align=center;" parent="1" vertex="1">
                    <mxGeometry x="600" y="240" width="100" height="40" as="geometry"/>
                </mxCell>
                <mxCell id="29" value="SocialMedia" style="whiteSpace=wrap;html=1;align=center;" parent="1" vertex="1">
                    <mxGeometry x="600" y="320" width="100" height="40" as="geometry"/>
                </mxCell>
                <mxCell id="30" value="PersonalData" style="whiteSpace=wrap;html=1;align=center;" parent="1" vertex="1">
                    <mxGeometry x="440" y="240" width="100" height="40" as="geometry"/>
                </mxCell>
                <mxCell id="31" value="" style="edgeStyle=entityRelationEdgeStyle;fontSize=12;html=1;endArrow=ERmandOne;exitX=1;exitY=0.5;exitDx=0;exitDy=0;entryX=0;entryY=0.5;entryDx=0;entryDy=0;" parent="1" source="30" target="27" edge="1">
                    <mxGeometry width="100" height="100" relative="1" as="geometry">
                        <mxPoint x="190" y="150" as="sourcePoint"/>
                        <mxPoint x="334" y="150" as="targetPoint"/>
                    </mxGeometry>
                </mxCell>
                <mxCell id="32" value="" style="edgeStyle=entityRelationEdgeStyle;fontSize=12;html=1;endArrow=ERmandOne;exitX=1;exitY=0.5;exitDx=0;exitDy=0;" parent="1" source="30" target="28" edge="1">
                    <mxGeometry width="100" height="100" relative="1" as="geometry">
                        <mxPoint x="550" y="270" as="sourcePoint"/>
                        <mxPoint x="610" y="190" as="targetPoint"/>
                    </mxGeometry>
                </mxCell>
                <mxCell id="33" value="" style="edgeStyle=entityRelationEdgeStyle;fontSize=12;html=1;endArrow=ERmandOne;exitX=1;exitY=0.5;exitDx=0;exitDy=0;entryX=0;entryY=0.5;entryDx=0;entryDy=0;" parent="1" source="30" target="29" edge="1">
                    <mxGeometry width="100" height="100" relative="1" as="geometry">
                        <mxPoint x="550" y="270" as="sourcePoint"/>
                        <mxPoint x="610" y="270" as="targetPoint"/>
                    </mxGeometry>
                </mxCell>
                <mxCell id="aIPjC3qV4bx4-dY8m5Lg-33" value="" style="edgeStyle=entityRelationEdgeStyle;fontSize=12;html=1;endArrow=ERmandOne;exitX=1;exitY=0.5;exitDx=0;exitDy=0;entryX=0;entryY=0.5;entryDx=0;entryDy=0;" parent="1" source="18" target="30" edge="1">
                    <mxGeometry width="100" height="100" relative="1" as="geometry">
                        <mxPoint x="230" y="150" as="sourcePoint"/>
                        <mxPoint x="374" y="150" as="targetPoint"/>
                    </mxGeometry>
                </mxCell>
                <mxCell id="34" value="Perfil" style="whiteSpace=wrap;html=1;align=center;" vertex="1" parent="1">
                    <mxGeometry x="440" y="480" width="100" height="40" as="geometry"/>
                </mxCell>
                <mxCell id="36" value="" style="edgeStyle=entityRelationEdgeStyle;fontSize=12;html=1;endArrow=ERmandOne;entryX=0;entryY=0.5;entryDx=0;entryDy=0;exitX=1;exitY=0.5;exitDx=0;exitDy=0;" edge="1" parent="1" source="18" target="34">
                    <mxGeometry width="100" height="100" relative="1" as="geometry">
                        <mxPoint x="220" y="260" as="sourcePoint"/>
                        <mxPoint x="450" y="270" as="targetPoint"/>
                    </mxGeometry>
                </mxCell>
                <mxCell id="37" value="" style="edgeStyle=entityRelationEdgeStyle;fontSize=12;html=1;endArrow=ERoneToMany;entryX=0;entryY=0.5;entryDx=0;entryDy=0;exitX=1;exitY=0.5;exitDx=0;exitDy=0;" edge="1" parent="1" source="34" target="20">
                    <mxGeometry width="100" height="100" relative="1" as="geometry">
                        <mxPoint x="360" y="490" as="sourcePoint"/>
                        <mxPoint x="460" y="390" as="targetPoint"/>
                    </mxGeometry>
                </mxCell>
                <mxCell id="39" value="" style="edgeStyle=entityRelationEdgeStyle;fontSize=12;html=1;endArrow=ERoneToMany;entryX=0;entryY=0.5;entryDx=0;entryDy=0;exitX=1;exitY=0.5;exitDx=0;exitDy=0;" edge="1" parent="1" source="34" target="21">
                    <mxGeometry width="100" height="100" relative="1" as="geometry">
                        <mxPoint x="550" y="510" as="sourcePoint"/>
                        <mxPoint x="610" y="430" as="targetPoint"/>
                    </mxGeometry>
                </mxCell>
                <mxCell id="40" value="" style="edgeStyle=entityRelationEdgeStyle;fontSize=12;html=1;endArrow=ERoneToMany;" edge="1" parent="1" target="22">
                    <mxGeometry width="100" height="100" relative="1" as="geometry">
                        <mxPoint x="540" y="500" as="sourcePoint"/>
                        <mxPoint x="620" y="440" as="targetPoint"/>
                    </mxGeometry>
                </mxCell>
                <mxCell id="41" value="" style="edgeStyle=entityRelationEdgeStyle;fontSize=12;html=1;endArrow=ERoneToMany;entryX=0;entryY=0.5;entryDx=0;entryDy=0;exitX=1;exitY=0.5;exitDx=0;exitDy=0;" edge="1" parent="1" source="34" target="23">
                    <mxGeometry width="100" height="100" relative="1" as="geometry">
                        <mxPoint x="570" y="530" as="sourcePoint"/>
                        <mxPoint x="630" y="450" as="targetPoint"/>
                    </mxGeometry>
                </mxCell>
                <mxCell id="42" value="" style="edgeStyle=entityRelationEdgeStyle;fontSize=12;html=1;endArrow=ERoneToMany;entryX=0;entryY=0.5;entryDx=0;entryDy=0;exitX=1;exitY=0.5;exitDx=0;exitDy=0;" edge="1" parent="1" source="34" target="24">
                    <mxGeometry width="100" height="100" relative="1" as="geometry">
                        <mxPoint x="580" y="540" as="sourcePoint"/>
                        <mxPoint x="640" y="460" as="targetPoint"/>
                    </mxGeometry>
                </mxCell>
                <mxCell id="Z_mjOcKC-vPdairBSUUg-42" value="" style="edgeStyle=entityRelationEdgeStyle;fontSize=12;html=1;endArrow=ERoneToMany;entryX=0.5;entryY=0;entryDx=0;entryDy=0;exitX=0.5;exitY=1;exitDx=0;exitDy=0;" edge="1" parent="1" source="18" target="26">
                    <mxGeometry width="100" height="100" relative="1" as="geometry">
                        <mxPoint x="210" y="590" as="sourcePoint"/>
                        <mxPoint x="270" y="510" as="targetPoint"/>
                    </mxGeometry>
                </mxCell>
                <mxCell id="Z_mjOcKC-vPdairBSUUg-43" value="" style="edgeStyle=entityRelationEdgeStyle;fontSize=12;html=1;endArrow=ERoneToMany;entryX=0.5;entryY=0;entryDx=0;entryDy=0;exitX=0.5;exitY=1;exitDx=0;exitDy=0;" edge="1" parent="1" source="18" target="25">
                    <mxGeometry width="100" height="100" relative="1" as="geometry">
                        <mxPoint x="170" y="290" as="sourcePoint"/>
                        <mxPoint x="260" y="450" as="targetPoint"/>
                    </mxGeometry>
                </mxCell>
                <mxCell id="-lPx0DzN-y4wpEep7xz5-42" value="ObjCommon" style="whiteSpace=wrap;html=1;align=center;" vertex="1" parent="1">
                    <mxGeometry x="40" y="720" width="100" height="40" as="geometry"/>
                </mxCell>
                <mxCell id="-lPx0DzN-y4wpEep7xz5-43" value="Name" style="ellipse;whiteSpace=wrap;html=1;align=center;" vertex="1" parent="1">
                    <mxGeometry x="190" y="660" width="100" height="40" as="geometry"/>
                </mxCell>
                <mxCell id="-lPx0DzN-y4wpEep7xz5-44" value="" style="endArrow=none;html=1;rounded=0;entryX=0;entryY=1;entryDx=0;entryDy=0;exitX=1;exitY=0.5;exitDx=0;exitDy=0;" edge="1" parent="1" source="-lPx0DzN-y4wpEep7xz5-42" target="-lPx0DzN-y4wpEep7xz5-43">
                    <mxGeometry relative="1" as="geometry">
                        <mxPoint x="140" y="740" as="sourcePoint"/>
                        <mxPoint x="470" y="940" as="targetPoint"/>
                    </mxGeometry>
                </mxCell>
                <mxCell id="-lPx0DzN-y4wpEep7xz5-45" value="PathImage" style="ellipse;whiteSpace=wrap;html=1;align=center;" vertex="1" parent="1">
                    <mxGeometry x="290" y="700" width="100" height="40" as="geometry"/>
                </mxCell>
                <mxCell id="-lPx0DzN-y4wpEep7xz5-46" value="" style="endArrow=none;html=1;rounded=0;entryX=0;entryY=0.5;entryDx=0;entryDy=0;exitX=1;exitY=0.5;exitDx=0;exitDy=0;" edge="1" parent="1" source="-lPx0DzN-y4wpEep7xz5-42" target="-lPx0DzN-y4wpEep7xz5-45">
                    <mxGeometry relative="1" as="geometry">
                        <mxPoint x="140" y="740" as="sourcePoint"/>
                        <mxPoint x="480" y="960" as="targetPoint"/>
                    </mxGeometry>
                </mxCell>
                <mxCell id="-lPx0DzN-y4wpEep7xz5-47" value="UrlLink" style="ellipse;whiteSpace=wrap;html=1;align=center;" vertex="1" parent="1">
                    <mxGeometry x="290" y="760" width="100" height="40" as="geometry"/>
                </mxCell>
                <mxCell id="-lPx0DzN-y4wpEep7xz5-48" value="" style="endArrow=none;html=1;rounded=0;entryX=0;entryY=0.5;entryDx=0;entryDy=0;exitX=1;exitY=0.5;exitDx=0;exitDy=0;" edge="1" parent="1" source="-lPx0DzN-y4wpEep7xz5-42" target="-lPx0DzN-y4wpEep7xz5-47">
                    <mxGeometry relative="1" as="geometry">
                        <mxPoint x="140" y="740" as="sourcePoint"/>
                        <mxPoint x="490" y="1020" as="targetPoint"/>
                    </mxGeometry>
                </mxCell>
                <mxCell id="-lPx0DzN-y4wpEep7xz5-49" value="Description" style="ellipse;whiteSpace=wrap;html=1;align=center;" vertex="1" parent="1">
                    <mxGeometry x="190" y="790" width="100" height="40" as="geometry"/>
                </mxCell>
                <mxCell id="-lPx0DzN-y4wpEep7xz5-50" value="" style="endArrow=none;html=1;rounded=0;entryX=0.288;entryY=0.095;entryDx=0;entryDy=0;exitX=1;exitY=0.5;exitDx=0;exitDy=0;entryPerimeter=0;" edge="1" parent="1" source="-lPx0DzN-y4wpEep7xz5-42" target="-lPx0DzN-y4wpEep7xz5-49">
                    <mxGeometry relative="1" as="geometry">
                        <mxPoint x="140" y="740" as="sourcePoint"/>
                        <mxPoint x="420" y="1060" as="targetPoint"/>
                    </mxGeometry>
                </mxCell>
                <mxCell id="0DJw9GHYA9k9fsEaqiNC-42" value="Menu" style="whiteSpace=wrap;html=1;align=center;" vertex="1" parent="1">
                    <mxGeometry x="362" y="70" width="100" height="40" as="geometry"/>
                </mxCell>
                <mxCell id="0DJw9GHYA9k9fsEaqiNC-43" value="" style="edgeStyle=entityRelationEdgeStyle;fontSize=12;html=1;endArrow=ERmandOne;exitX=1;exitY=0.5;exitDx=0;exitDy=0;" edge="1" parent="1" target="0DJw9GHYA9k9fsEaqiNC-42" source="2">
                    <mxGeometry width="100" height="100" relative="1" as="geometry">
                        <mxPoint x="218" y="90" as="sourcePoint"/>
                        <mxPoint x="458" y="340" as="targetPoint"/>
                    </mxGeometry>
                </mxCell>
                <mxCell id="0DJw9GHYA9k9fsEaqiNC-44" value="Element" style="whiteSpace=wrap;html=1;align=center;" vertex="1" parent="1">
                    <mxGeometry x="570" y="70" width="100" height="40" as="geometry"/>
                </mxCell>
                <mxCell id="0DJw9GHYA9k9fsEaqiNC-45" value="" style="edgeStyle=entityRelationEdgeStyle;fontSize=12;html=1;endArrow=ERoneToMany;entryX=0;entryY=0.5;entryDx=0;entryDy=0;exitX=1;exitY=0.5;exitDx=0;exitDy=0;" edge="1" parent="1" target="0DJw9GHYA9k9fsEaqiNC-44" source="0DJw9GHYA9k9fsEaqiNC-42">
                    <mxGeometry width="100" height="100" relative="1" as="geometry">
                        <mxPoint x="520" y="180" as="sourcePoint"/>
                        <mxPoint x="440" y="70" as="targetPoint"/>
                    </mxGeometry>
                </mxCell>
            </root>
        </mxGraphModel>
    </diagram>
    <diagram id="k8ibLrAltQ-k-8B2CKRI" name="PersonalData">
        <mxGraphModel dx="1168" dy="863" grid="1" gridSize="10" guides="1" tooltips="1" connect="1" arrows="1" fold="1" page="1" pageScale="1" pageWidth="827" pageHeight="1169" math="0" shadow="0">
            <root>
                <mxCell id="oWYENV9Tg8r2bvJdzdvz-0"/>
                <mxCell id="oWYENV9Tg8r2bvJdzdvz-1" parent="oWYENV9Tg8r2bvJdzdvz-0"/>
                <mxCell id="oWYENV9Tg8r2bvJdzdvz-2" value="Address" style="whiteSpace=wrap;html=1;align=center;" parent="oWYENV9Tg8r2bvJdzdvz-1" vertex="1">
                    <mxGeometry x="440" y="160" width="100" height="40" as="geometry"/>
                </mxCell>
                <mxCell id="oWYENV9Tg8r2bvJdzdvz-3" value="Contact" style="whiteSpace=wrap;html=1;align=center;" parent="oWYENV9Tg8r2bvJdzdvz-1" vertex="1">
                    <mxGeometry x="450" y="360" width="100" height="40" as="geometry"/>
                </mxCell>
                <mxCell id="oWYENV9Tg8r2bvJdzdvz-5" value="PersonalData" style="whiteSpace=wrap;html=1;align=center;" parent="oWYENV9Tg8r2bvJdzdvz-1" vertex="1">
                    <mxGeometry x="210" y="360" width="100" height="40" as="geometry"/>
                </mxCell>
                <mxCell id="oWYENV9Tg8r2bvJdzdvz-6" value="" style="edgeStyle=entityRelationEdgeStyle;fontSize=12;html=1;endArrow=ERmandOne;exitX=1;exitY=0.5;exitDx=0;exitDy=0;entryX=0;entryY=0.5;entryDx=0;entryDy=0;" parent="oWYENV9Tg8r2bvJdzdvz-1" source="oWYENV9Tg8r2bvJdzdvz-5" target="oWYENV9Tg8r2bvJdzdvz-2" edge="1">
                    <mxGeometry width="100" height="100" relative="1" as="geometry">
                        <mxPoint x="-40" y="230" as="sourcePoint"/>
                        <mxPoint x="104" y="230" as="targetPoint"/>
                    </mxGeometry>
                </mxCell>
                <mxCell id="oWYENV9Tg8r2bvJdzdvz-7" value="" style="edgeStyle=entityRelationEdgeStyle;fontSize=12;html=1;endArrow=ERmandOne;exitX=1;exitY=0.5;exitDx=0;exitDy=0;" parent="oWYENV9Tg8r2bvJdzdvz-1" source="oWYENV9Tg8r2bvJdzdvz-5" target="oWYENV9Tg8r2bvJdzdvz-3" edge="1">
                    <mxGeometry width="100" height="100" relative="1" as="geometry">
                        <mxPoint x="320" y="350" as="sourcePoint"/>
                        <mxPoint x="380" y="270" as="targetPoint"/>
                    </mxGeometry>
                </mxCell>
                <mxCell id="oWYENV9Tg8r2bvJdzdvz-8" value="" style="edgeStyle=entityRelationEdgeStyle;fontSize=12;html=1;endArrow=ERmandOne;exitX=1;exitY=0.5;exitDx=0;exitDy=0;entryX=0;entryY=0.5;entryDx=0;entryDy=0;" parent="oWYENV9Tg8r2bvJdzdvz-1" source="oWYENV9Tg8r2bvJdzdvz-5" target="zUDbnNgpfCXYWed3KHSX-0" edge="1">
                    <mxGeometry width="100" height="100" relative="1" as="geometry">
                        <mxPoint x="320" y="350" as="sourcePoint"/>
                        <mxPoint x="450" y="620" as="targetPoint"/>
                    </mxGeometry>
                </mxCell>
                <mxCell id="oWYENV9Tg8r2bvJdzdvz-9" value="Tel Movil" style="ellipse;whiteSpace=wrap;html=1;align=center;" parent="oWYENV9Tg8r2bvJdzdvz-1" vertex="1">
                    <mxGeometry x="610" y="270" width="100" height="40" as="geometry"/>
                </mxCell>
                <mxCell id="oWYENV9Tg8r2bvJdzdvz-10" value="Tel Home" style="ellipse;whiteSpace=wrap;html=1;align=center;" parent="oWYENV9Tg8r2bvJdzdvz-1" vertex="1">
                    <mxGeometry x="610" y="330" width="100" height="40" as="geometry"/>
                </mxCell>
                <mxCell id="oWYENV9Tg8r2bvJdzdvz-11" value="Email" style="ellipse;whiteSpace=wrap;html=1;align=center;" parent="oWYENV9Tg8r2bvJdzdvz-1" vertex="1">
                    <mxGeometry x="610" y="390" width="100" height="40" as="geometry"/>
                </mxCell>
                <mxCell id="oWYENV9Tg8r2bvJdzdvz-12" value="" style="endArrow=none;html=1;rounded=0;entryX=0;entryY=0.5;entryDx=0;entryDy=0;exitX=1;exitY=0.5;exitDx=0;exitDy=0;" parent="oWYENV9Tg8r2bvJdzdvz-1" source="oWYENV9Tg8r2bvJdzdvz-3" target="oWYENV9Tg8r2bvJdzdvz-9" edge="1">
                    <mxGeometry relative="1" as="geometry">
                        <mxPoint x="380" y="520" as="sourcePoint"/>
                        <mxPoint x="540" y="520" as="targetPoint"/>
                    </mxGeometry>
                </mxCell>
                <mxCell id="oWYENV9Tg8r2bvJdzdvz-13" value="" style="endArrow=none;html=1;rounded=0;entryX=0;entryY=0.5;entryDx=0;entryDy=0;exitX=1;exitY=0.5;exitDx=0;exitDy=0;" parent="oWYENV9Tg8r2bvJdzdvz-1" source="oWYENV9Tg8r2bvJdzdvz-3" target="oWYENV9Tg8r2bvJdzdvz-10" edge="1">
                    <mxGeometry relative="1" as="geometry">
                        <mxPoint x="560" y="390" as="sourcePoint"/>
                        <mxPoint x="620" y="310" as="targetPoint"/>
                    </mxGeometry>
                </mxCell>
                <mxCell id="oWYENV9Tg8r2bvJdzdvz-14" value="" style="endArrow=none;html=1;rounded=0;entryX=0;entryY=0.5;entryDx=0;entryDy=0;exitX=1;exitY=0.5;exitDx=0;exitDy=0;" parent="oWYENV9Tg8r2bvJdzdvz-1" source="oWYENV9Tg8r2bvJdzdvz-3" target="oWYENV9Tg8r2bvJdzdvz-11" edge="1">
                    <mxGeometry relative="1" as="geometry">
                        <mxPoint x="550" y="360" as="sourcePoint"/>
                        <mxPoint x="620" y="370" as="targetPoint"/>
                    </mxGeometry>
                </mxCell>
                <mxCell id="oWYENV9Tg8r2bvJdzdvz-15" value="Website" style="ellipse;whiteSpace=wrap;html=1;align=center;" parent="oWYENV9Tg8r2bvJdzdvz-1" vertex="1">
                    <mxGeometry x="610" y="450" width="100" height="40" as="geometry"/>
                </mxCell>
                <mxCell id="oWYENV9Tg8r2bvJdzdvz-16" value="" style="endArrow=none;html=1;rounded=0;entryX=0;entryY=0.5;entryDx=0;entryDy=0;exitX=1;exitY=0.5;exitDx=0;exitDy=0;" parent="oWYENV9Tg8r2bvJdzdvz-1" source="oWYENV9Tg8r2bvJdzdvz-3" target="oWYENV9Tg8r2bvJdzdvz-15" edge="1">
                    <mxGeometry relative="1" as="geometry">
                        <mxPoint x="560" y="390" as="sourcePoint"/>
                        <mxPoint x="620" y="410" as="targetPoint"/>
                    </mxGeometry>
                </mxCell>
                <mxCell id="oWYENV9Tg8r2bvJdzdvz-17" value="Num" style="ellipse;whiteSpace=wrap;html=1;align=center;" parent="oWYENV9Tg8r2bvJdzdvz-1" vertex="1">
                    <mxGeometry x="490" y="60" width="100" height="40" as="geometry"/>
                </mxCell>
                <mxCell id="oWYENV9Tg8r2bvJdzdvz-18" value="Street" style="ellipse;whiteSpace=wrap;html=1;align=center;" parent="oWYENV9Tg8r2bvJdzdvz-1" vertex="1">
                    <mxGeometry x="370" y="60" width="100" height="40" as="geometry"/>
                </mxCell>
                <mxCell id="oWYENV9Tg8r2bvJdzdvz-19" value="Town" style="ellipse;whiteSpace=wrap;html=1;align=center;" parent="oWYENV9Tg8r2bvJdzdvz-1" vertex="1">
                    <mxGeometry x="610" y="80" width="100" height="40" as="geometry"/>
                </mxCell>
                <mxCell id="oWYENV9Tg8r2bvJdzdvz-20" value="City" style="ellipse;whiteSpace=wrap;html=1;align=center;" parent="oWYENV9Tg8r2bvJdzdvz-1" vertex="1">
                    <mxGeometry x="640" y="140" width="100" height="40" as="geometry"/>
                </mxCell>
                <mxCell id="oWYENV9Tg8r2bvJdzdvz-21" value="" style="endArrow=none;html=1;rounded=0;entryX=0.5;entryY=1;entryDx=0;entryDy=0;exitX=0.5;exitY=0;exitDx=0;exitDy=0;" parent="oWYENV9Tg8r2bvJdzdvz-1" source="oWYENV9Tg8r2bvJdzdvz-2" target="oWYENV9Tg8r2bvJdzdvz-18" edge="1">
                    <mxGeometry relative="1" as="geometry">
                        <mxPoint x="560" y="390" as="sourcePoint"/>
                        <mxPoint x="620" y="300" as="targetPoint"/>
                    </mxGeometry>
                </mxCell>
                <mxCell id="oWYENV9Tg8r2bvJdzdvz-22" value="" style="endArrow=none;html=1;rounded=0;entryX=0.38;entryY=1.065;entryDx=0;entryDy=0;entryPerimeter=0;exitX=0.5;exitY=0;exitDx=0;exitDy=0;" parent="oWYENV9Tg8r2bvJdzdvz-1" source="oWYENV9Tg8r2bvJdzdvz-2" target="oWYENV9Tg8r2bvJdzdvz-17" edge="1">
                    <mxGeometry relative="1" as="geometry">
                        <mxPoint x="490" y="160" as="sourcePoint"/>
                        <mxPoint x="430" y="90" as="targetPoint"/>
                    </mxGeometry>
                </mxCell>
                <mxCell id="oWYENV9Tg8r2bvJdzdvz-23" value="" style="endArrow=none;html=1;rounded=0;entryX=0;entryY=1;entryDx=0;entryDy=0;exitX=1;exitY=0.5;exitDx=0;exitDy=0;" parent="oWYENV9Tg8r2bvJdzdvz-1" source="oWYENV9Tg8r2bvJdzdvz-2" target="oWYENV9Tg8r2bvJdzdvz-19" edge="1">
                    <mxGeometry relative="1" as="geometry">
                        <mxPoint x="510" y="170" as="sourcePoint"/>
                        <mxPoint x="538" y="92.60000000000002" as="targetPoint"/>
                    </mxGeometry>
                </mxCell>
                <mxCell id="oWYENV9Tg8r2bvJdzdvz-25" value="" style="endArrow=none;html=1;rounded=0;entryX=0;entryY=0.5;entryDx=0;entryDy=0;exitX=1;exitY=0.5;exitDx=0;exitDy=0;" parent="oWYENV9Tg8r2bvJdzdvz-1" source="oWYENV9Tg8r2bvJdzdvz-2" target="oWYENV9Tg8r2bvJdzdvz-20" edge="1">
                    <mxGeometry relative="1" as="geometry">
                        <mxPoint x="550" y="190" as="sourcePoint"/>
                        <mxPoint x="634.6446609406726" y="104.14213562373095" as="targetPoint"/>
                    </mxGeometry>
                </mxCell>
                <mxCell id="oWYENV9Tg8r2bvJdzdvz-26" value="PostalCode" style="ellipse;whiteSpace=wrap;html=1;align=center;" parent="oWYENV9Tg8r2bvJdzdvz-1" vertex="1">
                    <mxGeometry x="480" y="220" width="100" height="40" as="geometry"/>
                </mxCell>
                <mxCell id="oWYENV9Tg8r2bvJdzdvz-27" value="" style="endArrow=none;html=1;rounded=0;entryX=0.5;entryY=0;entryDx=0;entryDy=0;exitX=0.5;exitY=1;exitDx=0;exitDy=0;" parent="oWYENV9Tg8r2bvJdzdvz-1" source="oWYENV9Tg8r2bvJdzdvz-2" target="oWYENV9Tg8r2bvJdzdvz-26" edge="1">
                    <mxGeometry relative="1" as="geometry">
                        <mxPoint x="540" y="180" as="sourcePoint"/>
                        <mxPoint x="650" y="150" as="targetPoint"/>
                    </mxGeometry>
                </mxCell>
                <mxCell id="oWYENV9Tg8r2bvJdzdvz-28" value="Country" style="ellipse;whiteSpace=wrap;html=1;align=center;" parent="oWYENV9Tg8r2bvJdzdvz-1" vertex="1">
                    <mxGeometry x="600" y="200" width="100" height="40" as="geometry"/>
                </mxCell>
                <mxCell id="oWYENV9Tg8r2bvJdzdvz-29" value="" style="endArrow=none;html=1;rounded=0;entryX=0;entryY=0.5;entryDx=0;entryDy=0;exitX=1;exitY=0.5;exitDx=0;exitDy=0;" parent="oWYENV9Tg8r2bvJdzdvz-1" source="oWYENV9Tg8r2bvJdzdvz-2" target="oWYENV9Tg8r2bvJdzdvz-28" edge="1">
                    <mxGeometry relative="1" as="geometry">
                        <mxPoint x="550" y="190" as="sourcePoint"/>
                        <mxPoint x="650" y="150" as="targetPoint"/>
                    </mxGeometry>
                </mxCell>
                <mxCell id="oWYENV9Tg8r2bvJdzdvz-36" value="Name" style="ellipse;whiteSpace=wrap;html=1;align=center;" parent="oWYENV9Tg8r2bvJdzdvz-1" vertex="1">
                    <mxGeometry x="190" y="220" width="100" height="40" as="geometry"/>
                </mxCell>
                <mxCell id="oWYENV9Tg8r2bvJdzdvz-37" value="Nick" style="ellipse;whiteSpace=wrap;html=1;align=center;" parent="oWYENV9Tg8r2bvJdzdvz-1" vertex="1">
                    <mxGeometry x="90" y="260" width="100" height="40" as="geometry"/>
                </mxCell>
                <mxCell id="oWYENV9Tg8r2bvJdzdvz-38" value="Birthday" style="ellipse;whiteSpace=wrap;html=1;align=center;" parent="oWYENV9Tg8r2bvJdzdvz-1" vertex="1">
                    <mxGeometry x="50" y="320" width="100" height="40" as="geometry"/>
                </mxCell>
                <mxCell id="oWYENV9Tg8r2bvJdzdvz-39" value="Gender" style="ellipse;whiteSpace=wrap;html=1;align=center;" parent="oWYENV9Tg8r2bvJdzdvz-1" vertex="1">
                    <mxGeometry x="40" y="380" width="100" height="40" as="geometry"/>
                </mxCell>
                <mxCell id="Z5wMpckDcFX4RjHbDoP_-0" value="Nationality" style="ellipse;whiteSpace=wrap;html=1;align=center;" parent="oWYENV9Tg8r2bvJdzdvz-1" vertex="1">
                    <mxGeometry x="50" y="440" width="100" height="40" as="geometry"/>
                </mxCell>
                <mxCell id="Z5wMpckDcFX4RjHbDoP_-1" value="" style="endArrow=none;html=1;rounded=0;entryX=0.5;entryY=1;entryDx=0;entryDy=0;exitX=0.5;exitY=0;exitDx=0;exitDy=0;" parent="oWYENV9Tg8r2bvJdzdvz-1" source="oWYENV9Tg8r2bvJdzdvz-5" target="oWYENV9Tg8r2bvJdzdvz-36" edge="1">
                    <mxGeometry relative="1" as="geometry">
                        <mxPoint x="500" y="170" as="sourcePoint"/>
                        <mxPoint x="430" y="110" as="targetPoint"/>
                    </mxGeometry>
                </mxCell>
                <mxCell id="Z5wMpckDcFX4RjHbDoP_-2" value="PathImage" style="ellipse;whiteSpace=wrap;html=1;align=center;" parent="oWYENV9Tg8r2bvJdzdvz-1" vertex="1">
                    <mxGeometry x="120" y="490" width="100" height="40" as="geometry"/>
                </mxCell>
                <mxCell id="Z5wMpckDcFX4RjHbDoP_-3" value="" style="endArrow=none;html=1;rounded=0;entryX=0.96;entryY=0.725;entryDx=0;entryDy=0;exitX=0.25;exitY=0;exitDx=0;exitDy=0;entryPerimeter=0;" parent="oWYENV9Tg8r2bvJdzdvz-1" source="oWYENV9Tg8r2bvJdzdvz-5" target="oWYENV9Tg8r2bvJdzdvz-37" edge="1">
                    <mxGeometry relative="1" as="geometry">
                        <mxPoint x="270" y="370" as="sourcePoint"/>
                        <mxPoint x="250" y="270" as="targetPoint"/>
                    </mxGeometry>
                </mxCell>
                <mxCell id="Z5wMpckDcFX4RjHbDoP_-4" value="" style="endArrow=none;html=1;rounded=0;entryX=1;entryY=0.5;entryDx=0;entryDy=0;exitX=0;exitY=0.5;exitDx=0;exitDy=0;" parent="oWYENV9Tg8r2bvJdzdvz-1" source="oWYENV9Tg8r2bvJdzdvz-5" target="oWYENV9Tg8r2bvJdzdvz-38" edge="1">
                    <mxGeometry relative="1" as="geometry">
                        <mxPoint x="245" y="370" as="sourcePoint"/>
                        <mxPoint x="196" y="299" as="targetPoint"/>
                    </mxGeometry>
                </mxCell>
                <mxCell id="Z5wMpckDcFX4RjHbDoP_-5" value="" style="endArrow=none;html=1;rounded=0;entryX=1;entryY=0.5;entryDx=0;entryDy=0;exitX=0;exitY=0.5;exitDx=0;exitDy=0;" parent="oWYENV9Tg8r2bvJdzdvz-1" source="oWYENV9Tg8r2bvJdzdvz-5" target="oWYENV9Tg8r2bvJdzdvz-39" edge="1">
                    <mxGeometry relative="1" as="geometry">
                        <mxPoint x="220" y="390" as="sourcePoint"/>
                        <mxPoint x="160" y="350" as="targetPoint"/>
                    </mxGeometry>
                </mxCell>
                <mxCell id="Z5wMpckDcFX4RjHbDoP_-6" value="" style="endArrow=none;html=1;rounded=0;exitX=0;exitY=0.5;exitDx=0;exitDy=0;entryX=1;entryY=0.5;entryDx=0;entryDy=0;" parent="oWYENV9Tg8r2bvJdzdvz-1" source="oWYENV9Tg8r2bvJdzdvz-5" target="Z5wMpckDcFX4RjHbDoP_-0" edge="1">
                    <mxGeometry relative="1" as="geometry">
                        <mxPoint x="220" y="390" as="sourcePoint"/>
                        <mxPoint x="150" y="450" as="targetPoint"/>
                    </mxGeometry>
                </mxCell>
                <mxCell id="Z5wMpckDcFX4RjHbDoP_-7" value="" style="endArrow=none;html=1;rounded=0;exitX=0.5;exitY=1;exitDx=0;exitDy=0;entryX=0.5;entryY=0;entryDx=0;entryDy=0;" parent="oWYENV9Tg8r2bvJdzdvz-1" source="oWYENV9Tg8r2bvJdzdvz-5" target="Z5wMpckDcFX4RjHbDoP_-2" edge="1">
                    <mxGeometry relative="1" as="geometry">
                        <mxPoint x="220" y="390" as="sourcePoint"/>
                        <mxPoint x="160" y="470" as="targetPoint"/>
                    </mxGeometry>
                </mxCell>
                <mxCell id="Z5wMpckDcFX4RjHbDoP_-8" value="Description" style="ellipse;whiteSpace=wrap;html=1;align=center;" parent="oWYENV9Tg8r2bvJdzdvz-1" vertex="1">
                    <mxGeometry x="240" y="490" width="100" height="40" as="geometry"/>
                </mxCell>
                <mxCell id="Z5wMpckDcFX4RjHbDoP_-9" value="" style="endArrow=none;html=1;rounded=0;exitX=0.5;exitY=1;exitDx=0;exitDy=0;entryX=0.5;entryY=0;entryDx=0;entryDy=0;" parent="oWYENV9Tg8r2bvJdzdvz-1" source="oWYENV9Tg8r2bvJdzdvz-5" target="Z5wMpckDcFX4RjHbDoP_-8" edge="1">
                    <mxGeometry relative="1" as="geometry">
                        <mxPoint x="270" y="410" as="sourcePoint"/>
                        <mxPoint x="180" y="500" as="targetPoint"/>
                    </mxGeometry>
                </mxCell>
                <mxCell id="zUDbnNgpfCXYWed3KHSX-0" value="SocialMedia" style="whiteSpace=wrap;html=1;align=center;" vertex="1" parent="oWYENV9Tg8r2bvJdzdvz-1">
                    <mxGeometry x="460" y="600" width="100" height="40" as="geometry"/>
                </mxCell>
                <mxCell id="zUDbnNgpfCXYWed3KHSX-1" value="Name" style="ellipse;whiteSpace=wrap;html=1;align=center;" vertex="1" parent="oWYENV9Tg8r2bvJdzdvz-1">
                    <mxGeometry x="610" y="540" width="100" height="40" as="geometry"/>
                </mxCell>
                <mxCell id="zUDbnNgpfCXYWed3KHSX-2" value="" style="endArrow=none;html=1;rounded=0;entryX=0;entryY=1;entryDx=0;entryDy=0;exitX=1;exitY=0.5;exitDx=0;exitDy=0;" edge="1" parent="oWYENV9Tg8r2bvJdzdvz-1" source="zUDbnNgpfCXYWed3KHSX-0" target="zUDbnNgpfCXYWed3KHSX-1">
                    <mxGeometry relative="1" as="geometry">
                        <mxPoint x="560" y="620" as="sourcePoint"/>
                        <mxPoint x="890" y="820" as="targetPoint"/>
                    </mxGeometry>
                </mxCell>
                <mxCell id="zUDbnNgpfCXYWed3KHSX-3" value="PathImage" style="ellipse;whiteSpace=wrap;html=1;align=center;" vertex="1" parent="oWYENV9Tg8r2bvJdzdvz-1">
                    <mxGeometry x="710" y="580" width="100" height="40" as="geometry"/>
                </mxCell>
                <mxCell id="zUDbnNgpfCXYWed3KHSX-4" value="" style="endArrow=none;html=1;rounded=0;entryX=0;entryY=0.5;entryDx=0;entryDy=0;exitX=1;exitY=0.5;exitDx=0;exitDy=0;" edge="1" parent="oWYENV9Tg8r2bvJdzdvz-1" source="zUDbnNgpfCXYWed3KHSX-0" target="zUDbnNgpfCXYWed3KHSX-3">
                    <mxGeometry relative="1" as="geometry">
                        <mxPoint x="560" y="620" as="sourcePoint"/>
                        <mxPoint x="900" y="840" as="targetPoint"/>
                    </mxGeometry>
                </mxCell>
                <mxCell id="zUDbnNgpfCXYWed3KHSX-5" value="UrlLink" style="ellipse;whiteSpace=wrap;html=1;align=center;" vertex="1" parent="oWYENV9Tg8r2bvJdzdvz-1">
                    <mxGeometry x="710" y="640" width="100" height="40" as="geometry"/>
                </mxCell>
                <mxCell id="zUDbnNgpfCXYWed3KHSX-6" value="" style="endArrow=none;html=1;rounded=0;entryX=0;entryY=0.5;entryDx=0;entryDy=0;exitX=1;exitY=0.5;exitDx=0;exitDy=0;" edge="1" parent="oWYENV9Tg8r2bvJdzdvz-1" source="zUDbnNgpfCXYWed3KHSX-0" target="zUDbnNgpfCXYWed3KHSX-5">
                    <mxGeometry relative="1" as="geometry">
                        <mxPoint x="560" y="620" as="sourcePoint"/>
                        <mxPoint x="910" y="900" as="targetPoint"/>
                    </mxGeometry>
                </mxCell>
                <mxCell id="zUDbnNgpfCXYWed3KHSX-7" value="Description" style="ellipse;whiteSpace=wrap;html=1;align=center;" vertex="1" parent="oWYENV9Tg8r2bvJdzdvz-1">
                    <mxGeometry x="610" y="670" width="100" height="40" as="geometry"/>
                </mxCell>
                <mxCell id="zUDbnNgpfCXYWed3KHSX-8" value="" style="endArrow=none;html=1;rounded=0;entryX=0.288;entryY=0.095;entryDx=0;entryDy=0;exitX=1;exitY=0.5;exitDx=0;exitDy=0;entryPerimeter=0;" edge="1" parent="oWYENV9Tg8r2bvJdzdvz-1" source="zUDbnNgpfCXYWed3KHSX-0" target="zUDbnNgpfCXYWed3KHSX-7">
                    <mxGeometry relative="1" as="geometry">
                        <mxPoint x="560" y="620" as="sourcePoint"/>
                        <mxPoint x="840" y="940" as="targetPoint"/>
                    </mxGeometry>
                </mxCell>
            </root>
        </mxGraphModel>
    </diagram>
    <diagram id="Iqw3o4aQjAo_rQBHfV2C" name="Perfil">
        <mxGraphModel dx="1168" dy="863" grid="1" gridSize="10" guides="1" tooltips="1" connect="1" arrows="1" fold="1" page="1" pageScale="1" pageWidth="827" pageHeight="1169" math="0" shadow="0">
            <root>
                <mxCell id="UCzvLCnFP5f_nsOMbR4n-0"/>
                <mxCell id="UCzvLCnFP5f_nsOMbR4n-1" parent="UCzvLCnFP5f_nsOMbR4n-0"/>
                <mxCell id="kziObsJmXIVPSFQkQnJI-0" value="Expertise" style="whiteSpace=wrap;html=1;align=center;" vertex="1" parent="UCzvLCnFP5f_nsOMbR4n-1">
                    <mxGeometry x="320" y="80" width="100" height="40" as="geometry"/>
                </mxCell>
                <mxCell id="kziObsJmXIVPSFQkQnJI-1" value="Education" style="whiteSpace=wrap;html=1;align=center;" vertex="1" parent="UCzvLCnFP5f_nsOMbR4n-1">
                    <mxGeometry x="320" y="240" width="100" height="40" as="geometry"/>
                </mxCell>
                <mxCell id="kziObsJmXIVPSFQkQnJI-2" value="Skill" style="whiteSpace=wrap;html=1;align=center;" vertex="1" parent="UCzvLCnFP5f_nsOMbR4n-1">
                    <mxGeometry x="320" y="440" width="100" height="40" as="geometry"/>
                </mxCell>
                <mxCell id="kziObsJmXIVPSFQkQnJI-3" value="Language" style="whiteSpace=wrap;html=1;align=center;" vertex="1" parent="UCzvLCnFP5f_nsOMbR4n-1">
                    <mxGeometry x="320" y="640" width="100" height="40" as="geometry"/>
                </mxCell>
                <mxCell id="kziObsJmXIVPSFQkQnJI-4" value="Interests" style="whiteSpace=wrap;html=1;align=center;" vertex="1" parent="UCzvLCnFP5f_nsOMbR4n-1">
                    <mxGeometry x="320" y="800" width="100" height="40" as="geometry"/>
                </mxCell>
                <mxCell id="kziObsJmXIVPSFQkQnJI-5" value="Perfil" style="whiteSpace=wrap;html=1;align=center;" vertex="1" parent="UCzvLCnFP5f_nsOMbR4n-1">
                    <mxGeometry x="120" y="280" width="100" height="40" as="geometry"/>
                </mxCell>
                <mxCell id="kziObsJmXIVPSFQkQnJI-6" value="" style="edgeStyle=entityRelationEdgeStyle;fontSize=12;html=1;endArrow=ERoneToMany;entryX=0;entryY=0.5;entryDx=0;entryDy=0;exitX=1;exitY=0.5;exitDx=0;exitDy=0;" edge="1" parent="UCzvLCnFP5f_nsOMbR4n-1" source="kziObsJmXIVPSFQkQnJI-5" target="kziObsJmXIVPSFQkQnJI-0">
                    <mxGeometry width="100" height="100" relative="1" as="geometry">
                        <mxPoint x="40" y="290" as="sourcePoint"/>
                        <mxPoint x="140" y="190" as="targetPoint"/>
                    </mxGeometry>
                </mxCell>
                <mxCell id="kziObsJmXIVPSFQkQnJI-7" value="" style="edgeStyle=entityRelationEdgeStyle;fontSize=12;html=1;endArrow=ERoneToMany;entryX=0;entryY=0.5;entryDx=0;entryDy=0;exitX=1;exitY=0.5;exitDx=0;exitDy=0;" edge="1" parent="UCzvLCnFP5f_nsOMbR4n-1" source="kziObsJmXIVPSFQkQnJI-5" target="kziObsJmXIVPSFQkQnJI-1">
                    <mxGeometry width="100" height="100" relative="1" as="geometry">
                        <mxPoint x="230" y="310" as="sourcePoint"/>
                        <mxPoint x="290" y="230" as="targetPoint"/>
                    </mxGeometry>
                </mxCell>
                <mxCell id="kziObsJmXIVPSFQkQnJI-8" value="" style="edgeStyle=entityRelationEdgeStyle;fontSize=12;html=1;endArrow=ERoneToMany;" edge="1" parent="UCzvLCnFP5f_nsOMbR4n-1" target="kziObsJmXIVPSFQkQnJI-2">
                    <mxGeometry width="100" height="100" relative="1" as="geometry">
                        <mxPoint x="220" y="300" as="sourcePoint"/>
                        <mxPoint x="300" y="240" as="targetPoint"/>
                    </mxGeometry>
                </mxCell>
                <mxCell id="kziObsJmXIVPSFQkQnJI-9" value="" style="edgeStyle=entityRelationEdgeStyle;fontSize=12;html=1;endArrow=ERoneToMany;entryX=0;entryY=0.5;entryDx=0;entryDy=0;exitX=1;exitY=0.5;exitDx=0;exitDy=0;" edge="1" parent="UCzvLCnFP5f_nsOMbR4n-1" source="kziObsJmXIVPSFQkQnJI-5" target="kziObsJmXIVPSFQkQnJI-3">
                    <mxGeometry width="100" height="100" relative="1" as="geometry">
                        <mxPoint x="250" y="330" as="sourcePoint"/>
                        <mxPoint x="310" y="250" as="targetPoint"/>
                    </mxGeometry>
                </mxCell>
                <mxCell id="kziObsJmXIVPSFQkQnJI-10" value="" style="edgeStyle=entityRelationEdgeStyle;fontSize=12;html=1;endArrow=ERoneToMany;entryX=0;entryY=0.5;entryDx=0;entryDy=0;exitX=1;exitY=0.5;exitDx=0;exitDy=0;" edge="1" parent="UCzvLCnFP5f_nsOMbR4n-1" source="kziObsJmXIVPSFQkQnJI-5" target="kziObsJmXIVPSFQkQnJI-4">
                    <mxGeometry width="100" height="100" relative="1" as="geometry">
                        <mxPoint x="260" y="340" as="sourcePoint"/>
                        <mxPoint x="320" y="260" as="targetPoint"/>
                    </mxGeometry>
                </mxCell>
                <mxCell id="SQdMAIPJRHSDk2FNlG99-0" value="Name" style="ellipse;whiteSpace=wrap;html=1;align=center;" vertex="1" parent="UCzvLCnFP5f_nsOMbR4n-1">
                    <mxGeometry x="400" y="10" width="100" height="40" as="geometry"/>
                </mxCell>
                <mxCell id="SQdMAIPJRHSDk2FNlG99-1" value="" style="endArrow=none;html=1;rounded=0;entryX=0;entryY=1;entryDx=0;entryDy=0;exitX=0.5;exitY=0;exitDx=0;exitDy=0;" edge="1" parent="UCzvLCnFP5f_nsOMbR4n-1" target="SQdMAIPJRHSDk2FNlG99-0" source="kziObsJmXIVPSFQkQnJI-0">
                    <mxGeometry relative="1" as="geometry">
                        <mxPoint x="620" y="160" as="sourcePoint"/>
                        <mxPoint x="750" y="300" as="targetPoint"/>
                    </mxGeometry>
                </mxCell>
                <mxCell id="SQdMAIPJRHSDk2FNlG99-2" value="Date" style="ellipse;whiteSpace=wrap;html=1;align=center;" vertex="1" parent="UCzvLCnFP5f_nsOMbR4n-1">
                    <mxGeometry x="520" y="20" width="100" height="40" as="geometry"/>
                </mxCell>
                <mxCell id="SQdMAIPJRHSDk2FNlG99-3" value="" style="endArrow=none;html=1;rounded=0;entryX=0;entryY=0.5;entryDx=0;entryDy=0;exitX=1;exitY=0.5;exitDx=0;exitDy=0;" edge="1" parent="UCzvLCnFP5f_nsOMbR4n-1" target="SQdMAIPJRHSDk2FNlG99-2" source="kziObsJmXIVPSFQkQnJI-0">
                    <mxGeometry relative="1" as="geometry">
                        <mxPoint x="630" y="180" as="sourcePoint"/>
                        <mxPoint x="760" y="320" as="targetPoint"/>
                    </mxGeometry>
                </mxCell>
                <mxCell id="SQdMAIPJRHSDk2FNlG99-4" value="CorporateEntity" style="ellipse;whiteSpace=wrap;html=1;align=center;" vertex="1" parent="UCzvLCnFP5f_nsOMbR4n-1">
                    <mxGeometry x="570" y="70" width="100" height="40" as="geometry"/>
                </mxCell>
                <mxCell id="SQdMAIPJRHSDk2FNlG99-5" value="" style="endArrow=none;html=1;rounded=0;entryX=0;entryY=0.5;entryDx=0;entryDy=0;exitX=1;exitY=0.5;exitDx=0;exitDy=0;" edge="1" parent="UCzvLCnFP5f_nsOMbR4n-1" target="SQdMAIPJRHSDk2FNlG99-4" source="kziObsJmXIVPSFQkQnJI-0">
                    <mxGeometry relative="1" as="geometry">
                        <mxPoint x="430" y="160" as="sourcePoint"/>
                        <mxPoint x="770" y="380" as="targetPoint"/>
                    </mxGeometry>
                </mxCell>
                <mxCell id="SQdMAIPJRHSDk2FNlG99-6" value="Description" style="ellipse;whiteSpace=wrap;html=1;align=center;" vertex="1" parent="UCzvLCnFP5f_nsOMbR4n-1">
                    <mxGeometry x="470" y="150" width="100" height="40" as="geometry"/>
                </mxCell>
                <mxCell id="SQdMAIPJRHSDk2FNlG99-7" value="" style="endArrow=none;html=1;rounded=0;entryX=0.288;entryY=0.095;entryDx=0;entryDy=0;exitX=1;exitY=0.5;exitDx=0;exitDy=0;entryPerimeter=0;" edge="1" parent="UCzvLCnFP5f_nsOMbR4n-1" target="SQdMAIPJRHSDk2FNlG99-6" source="kziObsJmXIVPSFQkQnJI-0">
                    <mxGeometry relative="1" as="geometry">
                        <mxPoint x="330" y="80" as="sourcePoint"/>
                        <mxPoint x="700" y="420" as="targetPoint"/>
                    </mxGeometry>
                </mxCell>
                <mxCell id="SQdMAIPJRHSDk2FNlG99-10" value="Name" style="ellipse;whiteSpace=wrap;html=1;align=center;" vertex="1" parent="UCzvLCnFP5f_nsOMbR4n-1">
                    <mxGeometry x="440" y="200" width="100" height="40" as="geometry"/>
                </mxCell>
                <mxCell id="SQdMAIPJRHSDk2FNlG99-11" value="" style="endArrow=none;html=1;rounded=0;entryX=0;entryY=1;entryDx=0;entryDy=0;exitX=1;exitY=0.5;exitDx=0;exitDy=0;" edge="1" parent="UCzvLCnFP5f_nsOMbR4n-1" target="SQdMAIPJRHSDk2FNlG99-10" source="kziObsJmXIVPSFQkQnJI-1">
                    <mxGeometry relative="1" as="geometry">
                        <mxPoint x="420" y="280" as="sourcePoint"/>
                        <mxPoint x="750" y="480" as="targetPoint"/>
                    </mxGeometry>
                </mxCell>
                <mxCell id="SQdMAIPJRHSDk2FNlG99-12" value="Date" style="ellipse;whiteSpace=wrap;html=1;align=center;" vertex="1" parent="UCzvLCnFP5f_nsOMbR4n-1">
                    <mxGeometry x="580" y="210" width="100" height="40" as="geometry"/>
                </mxCell>
                <mxCell id="SQdMAIPJRHSDk2FNlG99-13" value="" style="endArrow=none;html=1;rounded=0;entryX=0;entryY=0.5;entryDx=0;entryDy=0;exitX=1;exitY=0.5;exitDx=0;exitDy=0;" edge="1" parent="UCzvLCnFP5f_nsOMbR4n-1" target="SQdMAIPJRHSDk2FNlG99-12" source="kziObsJmXIVPSFQkQnJI-1">
                    <mxGeometry relative="1" as="geometry">
                        <mxPoint x="420" y="280" as="sourcePoint"/>
                        <mxPoint x="760" y="500" as="targetPoint"/>
                    </mxGeometry>
                </mxCell>
                <mxCell id="SQdMAIPJRHSDk2FNlG99-14" value="CorporateEntity" style="ellipse;whiteSpace=wrap;html=1;align=center;" vertex="1" parent="UCzvLCnFP5f_nsOMbR4n-1">
                    <mxGeometry x="600" y="260" width="100" height="40" as="geometry"/>
                </mxCell>
                <mxCell id="SQdMAIPJRHSDk2FNlG99-15" value="" style="endArrow=none;html=1;rounded=0;entryX=0;entryY=0.5;entryDx=0;entryDy=0;exitX=1;exitY=0.5;exitDx=0;exitDy=0;" edge="1" parent="UCzvLCnFP5f_nsOMbR4n-1" target="SQdMAIPJRHSDk2FNlG99-14" source="kziObsJmXIVPSFQkQnJI-1">
                    <mxGeometry relative="1" as="geometry">
                        <mxPoint x="420" y="280" as="sourcePoint"/>
                        <mxPoint x="770" y="560" as="targetPoint"/>
                    </mxGeometry>
                </mxCell>
                <mxCell id="SQdMAIPJRHSDk2FNlG99-16" value="Description" style="ellipse;whiteSpace=wrap;html=1;align=center;" vertex="1" parent="UCzvLCnFP5f_nsOMbR4n-1">
                    <mxGeometry x="470" y="320" width="100" height="40" as="geometry"/>
                </mxCell>
                <mxCell id="SQdMAIPJRHSDk2FNlG99-17" value="" style="endArrow=none;html=1;rounded=0;entryX=0.288;entryY=0.095;entryDx=0;entryDy=0;exitX=1;exitY=0.5;exitDx=0;exitDy=0;entryPerimeter=0;" edge="1" parent="UCzvLCnFP5f_nsOMbR4n-1" target="SQdMAIPJRHSDk2FNlG99-16" source="kziObsJmXIVPSFQkQnJI-1">
                    <mxGeometry relative="1" as="geometry">
                        <mxPoint x="420" y="280" as="sourcePoint"/>
                        <mxPoint x="700" y="600" as="targetPoint"/>
                    </mxGeometry>
                </mxCell>
                <mxCell id="SQdMAIPJRHSDk2FNlG99-18" value="Name" style="ellipse;whiteSpace=wrap;html=1;align=center;" vertex="1" parent="UCzvLCnFP5f_nsOMbR4n-1">
                    <mxGeometry x="470" y="380" width="100" height="40" as="geometry"/>
                </mxCell>
                <mxCell id="SQdMAIPJRHSDk2FNlG99-19" value="" style="endArrow=none;html=1;rounded=0;entryX=0;entryY=1;entryDx=0;entryDy=0;exitX=1;exitY=0.5;exitDx=0;exitDy=0;" edge="1" parent="UCzvLCnFP5f_nsOMbR4n-1" target="SQdMAIPJRHSDk2FNlG99-18" source="kziObsJmXIVPSFQkQnJI-2">
                    <mxGeometry relative="1" as="geometry">
                        <mxPoint x="420" y="460" as="sourcePoint"/>
                        <mxPoint x="750" y="660" as="targetPoint"/>
                    </mxGeometry>
                </mxCell>
                <mxCell id="SQdMAIPJRHSDk2FNlG99-20" value="PathImage" style="ellipse;whiteSpace=wrap;html=1;align=center;" vertex="1" parent="UCzvLCnFP5f_nsOMbR4n-1">
                    <mxGeometry x="570" y="420" width="100" height="40" as="geometry"/>
                </mxCell>
                <mxCell id="SQdMAIPJRHSDk2FNlG99-21" value="" style="endArrow=none;html=1;rounded=0;entryX=0;entryY=0.5;entryDx=0;entryDy=0;exitX=1;exitY=0.5;exitDx=0;exitDy=0;" edge="1" parent="UCzvLCnFP5f_nsOMbR4n-1" target="SQdMAIPJRHSDk2FNlG99-20" source="kziObsJmXIVPSFQkQnJI-2">
                    <mxGeometry relative="1" as="geometry">
                        <mxPoint x="420" y="460" as="sourcePoint"/>
                        <mxPoint x="760" y="680" as="targetPoint"/>
                    </mxGeometry>
                </mxCell>
                <mxCell id="SQdMAIPJRHSDk2FNlG99-22" value="Percentage" style="ellipse;whiteSpace=wrap;html=1;align=center;" vertex="1" parent="UCzvLCnFP5f_nsOMbR4n-1">
                    <mxGeometry x="570" y="480" width="100" height="40" as="geometry"/>
                </mxCell>
                <mxCell id="SQdMAIPJRHSDk2FNlG99-23" value="" style="endArrow=none;html=1;rounded=0;entryX=0;entryY=0.5;entryDx=0;entryDy=0;exitX=1;exitY=0.5;exitDx=0;exitDy=0;" edge="1" parent="UCzvLCnFP5f_nsOMbR4n-1" target="SQdMAIPJRHSDk2FNlG99-22" source="kziObsJmXIVPSFQkQnJI-2">
                    <mxGeometry relative="1" as="geometry">
                        <mxPoint x="420" y="460" as="sourcePoint"/>
                        <mxPoint x="770" y="740" as="targetPoint"/>
                    </mxGeometry>
                </mxCell>
                <mxCell id="SQdMAIPJRHSDk2FNlG99-24" value="Description" style="ellipse;whiteSpace=wrap;html=1;align=center;" vertex="1" parent="UCzvLCnFP5f_nsOMbR4n-1">
                    <mxGeometry x="470" y="510" width="100" height="40" as="geometry"/>
                </mxCell>
                <mxCell id="SQdMAIPJRHSDk2FNlG99-25" value="" style="endArrow=none;html=1;rounded=0;entryX=0.288;entryY=0.095;entryDx=0;entryDy=0;exitX=1;exitY=0.5;exitDx=0;exitDy=0;entryPerimeter=0;" edge="1" parent="UCzvLCnFP5f_nsOMbR4n-1" target="SQdMAIPJRHSDk2FNlG99-24" source="kziObsJmXIVPSFQkQnJI-2">
                    <mxGeometry relative="1" as="geometry">
                        <mxPoint x="420" y="460" as="sourcePoint"/>
                        <mxPoint x="700" y="780" as="targetPoint"/>
                    </mxGeometry>
                </mxCell>
                <mxCell id="SQdMAIPJRHSDk2FNlG99-26" value="Name" style="ellipse;whiteSpace=wrap;html=1;align=center;" vertex="1" parent="UCzvLCnFP5f_nsOMbR4n-1">
                    <mxGeometry x="510" y="585" width="100" height="40" as="geometry"/>
                </mxCell>
                <mxCell id="SQdMAIPJRHSDk2FNlG99-27" value="" style="endArrow=none;html=1;rounded=0;entryX=0;entryY=1;entryDx=0;entryDy=0;exitX=1;exitY=0.5;exitDx=0;exitDy=0;" edge="1" parent="UCzvLCnFP5f_nsOMbR4n-1" target="SQdMAIPJRHSDk2FNlG99-26" source="kziObsJmXIVPSFQkQnJI-3">
                    <mxGeometry relative="1" as="geometry">
                        <mxPoint x="550" y="730" as="sourcePoint"/>
                        <mxPoint x="880" y="930" as="targetPoint"/>
                    </mxGeometry>
                </mxCell>
                <mxCell id="SQdMAIPJRHSDk2FNlG99-28" value="Level" style="ellipse;whiteSpace=wrap;html=1;align=center;" vertex="1" parent="UCzvLCnFP5f_nsOMbR4n-1">
                    <mxGeometry x="550" y="640" width="100" height="40" as="geometry"/>
                </mxCell>
                <mxCell id="SQdMAIPJRHSDk2FNlG99-29" value="" style="endArrow=none;html=1;rounded=0;entryX=0;entryY=0.5;entryDx=0;entryDy=0;exitX=1;exitY=0.5;exitDx=0;exitDy=0;" edge="1" parent="UCzvLCnFP5f_nsOMbR4n-1" target="SQdMAIPJRHSDk2FNlG99-28" source="kziObsJmXIVPSFQkQnJI-3">
                    <mxGeometry relative="1" as="geometry">
                        <mxPoint x="550" y="730" as="sourcePoint"/>
                        <mxPoint x="890" y="950" as="targetPoint"/>
                    </mxGeometry>
                </mxCell>
                <mxCell id="SQdMAIPJRHSDk2FNlG99-30" value="PathImage" style="ellipse;whiteSpace=wrap;html=1;align=center;" vertex="1" parent="UCzvLCnFP5f_nsOMbR4n-1">
                    <mxGeometry x="470" y="690" width="100" height="40" as="geometry"/>
                </mxCell>
                <mxCell id="SQdMAIPJRHSDk2FNlG99-31" value="" style="endArrow=none;html=1;rounded=0;entryX=0;entryY=0.5;entryDx=0;entryDy=0;exitX=1;exitY=0.5;exitDx=0;exitDy=0;" edge="1" parent="UCzvLCnFP5f_nsOMbR4n-1" target="SQdMAIPJRHSDk2FNlG99-30" source="kziObsJmXIVPSFQkQnJI-3">
                    <mxGeometry relative="1" as="geometry">
                        <mxPoint x="550" y="730" as="sourcePoint"/>
                        <mxPoint x="900" y="1010" as="targetPoint"/>
                    </mxGeometry>
                </mxCell>
                <mxCell id="SQdMAIPJRHSDk2FNlG99-32" value="Name" style="ellipse;whiteSpace=wrap;html=1;align=center;" vertex="1" parent="UCzvLCnFP5f_nsOMbR4n-1">
                    <mxGeometry x="490" y="760" width="100" height="40" as="geometry"/>
                </mxCell>
                <mxCell id="SQdMAIPJRHSDk2FNlG99-33" value="" style="endArrow=none;html=1;rounded=0;entryX=0;entryY=0.5;entryDx=0;entryDy=0;exitX=1;exitY=0.5;exitDx=0;exitDy=0;" edge="1" parent="UCzvLCnFP5f_nsOMbR4n-1" target="SQdMAIPJRHSDk2FNlG99-32" source="kziObsJmXIVPSFQkQnJI-4">
                    <mxGeometry relative="1" as="geometry">
                        <mxPoint x="550" y="730" as="sourcePoint"/>
                        <mxPoint x="830" y="1050" as="targetPoint"/>
                    </mxGeometry>
                </mxCell>
                <mxCell id="SQdMAIPJRHSDk2FNlG99-34" value="UrlLink" style="ellipse;whiteSpace=wrap;html=1;align=center;" vertex="1" parent="UCzvLCnFP5f_nsOMbR4n-1">
                    <mxGeometry x="350" y="150" width="100" height="40" as="geometry"/>
                </mxCell>
                <mxCell id="SQdMAIPJRHSDk2FNlG99-35" value="" style="endArrow=none;html=1;rounded=0;entryX=0.5;entryY=0;entryDx=0;entryDy=0;exitX=0.5;exitY=1;exitDx=0;exitDy=0;" edge="1" parent="UCzvLCnFP5f_nsOMbR4n-1" source="kziObsJmXIVPSFQkQnJI-0" target="SQdMAIPJRHSDk2FNlG99-34">
                    <mxGeometry relative="1" as="geometry">
                        <mxPoint x="430" y="110" as="sourcePoint"/>
                        <mxPoint x="508.79999999999995" y="163.79999999999995" as="targetPoint"/>
                    </mxGeometry>
                </mxCell>
                <mxCell id="SQdMAIPJRHSDk2FNlG99-36" value="UrlLink" style="ellipse;whiteSpace=wrap;html=1;align=center;" vertex="1" parent="UCzvLCnFP5f_nsOMbR4n-1">
                    <mxGeometry x="350" y="320" width="100" height="40" as="geometry"/>
                </mxCell>
                <mxCell id="SQdMAIPJRHSDk2FNlG99-37" value="" style="endArrow=none;html=1;rounded=0;entryX=0.5;entryY=0;entryDx=0;entryDy=0;exitX=0.5;exitY=1;exitDx=0;exitDy=0;" edge="1" parent="UCzvLCnFP5f_nsOMbR4n-1" target="SQdMAIPJRHSDk2FNlG99-36" source="kziObsJmXIVPSFQkQnJI-1">
                    <mxGeometry relative="1" as="geometry">
                        <mxPoint x="370" y="290" as="sourcePoint"/>
                        <mxPoint x="508.79999999999995" y="333.79999999999995" as="targetPoint"/>
                    </mxGeometry>
                </mxCell>
                <mxCell id="SQdMAIPJRHSDk2FNlG99-38" value="UrlLink" style="ellipse;whiteSpace=wrap;html=1;align=center;" vertex="1" parent="UCzvLCnFP5f_nsOMbR4n-1">
                    <mxGeometry x="350" y="510" width="100" height="40" as="geometry"/>
                </mxCell>
                <mxCell id="SQdMAIPJRHSDk2FNlG99-39" value="" style="endArrow=none;html=1;rounded=0;entryX=0.5;entryY=0;entryDx=0;entryDy=0;exitX=0.5;exitY=1;exitDx=0;exitDy=0;" edge="1" parent="UCzvLCnFP5f_nsOMbR4n-1" target="SQdMAIPJRHSDk2FNlG99-38" source="kziObsJmXIVPSFQkQnJI-2">
                    <mxGeometry relative="1" as="geometry">
                        <mxPoint x="370" y="480" as="sourcePoint"/>
                        <mxPoint x="508.79999999999995" y="523.8" as="targetPoint"/>
                    </mxGeometry>
                </mxCell>
                <mxCell id="SQdMAIPJRHSDk2FNlG99-41" value="Category" style="ellipse;whiteSpace=wrap;html=1;align=center;" vertex="1" parent="UCzvLCnFP5f_nsOMbR4n-1">
                    <mxGeometry x="330" y="380" width="100" height="40" as="geometry"/>
                </mxCell>
                <mxCell id="SQdMAIPJRHSDk2FNlG99-42" value="" style="endArrow=none;html=1;rounded=0;entryX=0.5;entryY=1;entryDx=0;entryDy=0;exitX=0.5;exitY=0;exitDx=0;exitDy=0;" edge="1" parent="UCzvLCnFP5f_nsOMbR4n-1" target="SQdMAIPJRHSDk2FNlG99-41" source="kziObsJmXIVPSFQkQnJI-2">
                    <mxGeometry relative="1" as="geometry">
                        <mxPoint x="350" y="350" as="sourcePoint"/>
                        <mxPoint x="488.79999999999995" y="393.79999999999995" as="targetPoint"/>
                    </mxGeometry>
                </mxCell>
                <mxCell id="SQdMAIPJRHSDk2FNlG99-43" value="PathImage" style="ellipse;whiteSpace=wrap;html=1;align=center;" vertex="1" parent="UCzvLCnFP5f_nsOMbR4n-1">
                    <mxGeometry x="500" y="820" width="100" height="40" as="geometry"/>
                </mxCell>
                <mxCell id="SQdMAIPJRHSDk2FNlG99-44" value="" style="endArrow=none;html=1;rounded=0;entryX=0;entryY=0.5;entryDx=0;entryDy=0;exitX=1;exitY=0.5;exitDx=0;exitDy=0;" edge="1" parent="UCzvLCnFP5f_nsOMbR4n-1" target="SQdMAIPJRHSDk2FNlG99-43" source="kziObsJmXIVPSFQkQnJI-4">
                    <mxGeometry relative="1" as="geometry">
                        <mxPoint x="450" y="790" as="sourcePoint"/>
                        <mxPoint x="930" y="1140" as="targetPoint"/>
                    </mxGeometry>
                </mxCell>
                <mxCell id="FaieVw0amRwlJ_N07VjH-0" value="PathImage" style="ellipse;whiteSpace=wrap;html=1;align=center;" vertex="1" parent="UCzvLCnFP5f_nsOMbR4n-1">
                    <mxGeometry x="580" y="120" width="100" height="40" as="geometry"/>
                </mxCell>
                <mxCell id="FaieVw0amRwlJ_N07VjH-1" value="" style="endArrow=none;html=1;rounded=0;entryX=0;entryY=0.5;entryDx=0;entryDy=0;exitX=1;exitY=0.5;exitDx=0;exitDy=0;" edge="1" parent="UCzvLCnFP5f_nsOMbR4n-1" target="FaieVw0amRwlJ_N07VjH-0" source="kziObsJmXIVPSFQkQnJI-0">
                    <mxGeometry relative="1" as="geometry">
                        <mxPoint x="430" y="160" as="sourcePoint"/>
                        <mxPoint x="770" y="380" as="targetPoint"/>
                    </mxGeometry>
                </mxCell>
                <mxCell id="R6UFEhK69EIH97MV7EcA-0" value="PathImage" style="ellipse;whiteSpace=wrap;html=1;align=center;" vertex="1" parent="UCzvLCnFP5f_nsOMbR4n-1">
                    <mxGeometry x="600" y="310" width="100" height="40" as="geometry"/>
                </mxCell>
                <mxCell id="R6UFEhK69EIH97MV7EcA-1" value="" style="endArrow=none;html=1;rounded=0;entryX=0;entryY=0.5;entryDx=0;entryDy=0;exitX=1;exitY=0.5;exitDx=0;exitDy=0;" edge="1" parent="UCzvLCnFP5f_nsOMbR4n-1" target="R6UFEhK69EIH97MV7EcA-0" source="kziObsJmXIVPSFQkQnJI-1">
                    <mxGeometry relative="1" as="geometry">
                        <mxPoint x="440" y="290" as="sourcePoint"/>
                        <mxPoint x="790" y="570" as="targetPoint"/>
                    </mxGeometry>
                </mxCell>
            </root>
        </mxGraphModel>
    </diagram>
    <diagram id="KbCCbt7U1jJ0JAT6i6qT" name="Project">
        <mxGraphModel dx="1168" dy="863" grid="1" gridSize="10" guides="1" tooltips="1" connect="1" arrows="1" fold="1" page="1" pageScale="1" pageWidth="827" pageHeight="1169" math="0" shadow="0">
            <root>
                <mxCell id="wqdF_NPgMBwFlqjRqUC3-0"/>
                <mxCell id="wqdF_NPgMBwFlqjRqUC3-1" parent="wqdF_NPgMBwFlqjRqUC3-0"/>
                <mxCell id="ifzj-vKe0jPdRV8vJmEl-0" value="Project" style="whiteSpace=wrap;html=1;align=center;" vertex="1" parent="wqdF_NPgMBwFlqjRqUC3-1">
                    <mxGeometry x="360" y="210" width="100" height="40" as="geometry"/>
                </mxCell>
                <mxCell id="ifzj-vKe0jPdRV8vJmEl-1" value="Name" style="ellipse;whiteSpace=wrap;html=1;align=center;" vertex="1" parent="wqdF_NPgMBwFlqjRqUC3-1">
                    <mxGeometry x="190" y="110" width="100" height="40" as="geometry"/>
                </mxCell>
                <mxCell id="ifzj-vKe0jPdRV8vJmEl-2" value="" style="endArrow=none;html=1;rounded=0;entryX=0.5;entryY=1;entryDx=0;entryDy=0;exitX=0.25;exitY=0;exitDx=0;exitDy=0;" edge="1" parent="wqdF_NPgMBwFlqjRqUC3-1" source="ifzj-vKe0jPdRV8vJmEl-0" target="ifzj-vKe0jPdRV8vJmEl-1">
                    <mxGeometry relative="1" as="geometry">
                        <mxPoint x="380" y="210" as="sourcePoint"/>
                        <mxPoint x="790" y="430" as="targetPoint"/>
                    </mxGeometry>
                </mxCell>
                <mxCell id="ifzj-vKe0jPdRV8vJmEl-3" value="PathImage" style="ellipse;whiteSpace=wrap;html=1;align=center;" vertex="1" parent="wqdF_NPgMBwFlqjRqUC3-1">
                    <mxGeometry x="300" y="70" width="100" height="40" as="geometry"/>
                </mxCell>
                <mxCell id="ifzj-vKe0jPdRV8vJmEl-4" value="" style="endArrow=none;html=1;rounded=0;entryX=0.5;entryY=1;entryDx=0;entryDy=0;exitX=0.5;exitY=0;exitDx=0;exitDy=0;" edge="1" parent="wqdF_NPgMBwFlqjRqUC3-1" source="ifzj-vKe0jPdRV8vJmEl-0" target="ifzj-vKe0jPdRV8vJmEl-3">
                    <mxGeometry relative="1" as="geometry">
                        <mxPoint x="460" y="230" as="sourcePoint"/>
                        <mxPoint x="800" y="450" as="targetPoint"/>
                    </mxGeometry>
                </mxCell>
                <mxCell id="ifzj-vKe0jPdRV8vJmEl-5" value="Category" style="ellipse;whiteSpace=wrap;html=1;align=center;" vertex="1" parent="wqdF_NPgMBwFlqjRqUC3-1">
                    <mxGeometry x="430" y="70" width="100" height="40" as="geometry"/>
                </mxCell>
                <mxCell id="ifzj-vKe0jPdRV8vJmEl-6" value="" style="endArrow=none;html=1;rounded=0;entryX=0;entryY=1;entryDx=0;entryDy=0;exitX=0.75;exitY=0;exitDx=0;exitDy=0;" edge="1" parent="wqdF_NPgMBwFlqjRqUC3-1" source="ifzj-vKe0jPdRV8vJmEl-0" target="ifzj-vKe0jPdRV8vJmEl-5">
                    <mxGeometry relative="1" as="geometry">
                        <mxPoint x="460" y="230" as="sourcePoint"/>
                        <mxPoint x="810" y="510" as="targetPoint"/>
                    </mxGeometry>
                </mxCell>
                <mxCell id="ifzj-vKe0jPdRV8vJmEl-7" value="Description" style="ellipse;whiteSpace=wrap;html=1;align=center;" vertex="1" parent="wqdF_NPgMBwFlqjRqUC3-1">
                    <mxGeometry x="520" y="130" width="100" height="40" as="geometry"/>
                </mxCell>
                <mxCell id="ifzj-vKe0jPdRV8vJmEl-8" value="" style="endArrow=none;html=1;rounded=0;entryX=0;entryY=1;entryDx=0;entryDy=0;exitX=1;exitY=0.5;exitDx=0;exitDy=0;" edge="1" parent="wqdF_NPgMBwFlqjRqUC3-1" source="ifzj-vKe0jPdRV8vJmEl-0" target="ifzj-vKe0jPdRV8vJmEl-7">
                    <mxGeometry relative="1" as="geometry">
                        <mxPoint x="460" y="230" as="sourcePoint"/>
                        <mxPoint x="740" y="550" as="targetPoint"/>
                    </mxGeometry>
                </mxCell>
                <mxCell id="OOpMgrXezNRe1YiRCZjl-0" value="Link" style="whiteSpace=wrap;html=1;align=center;" vertex="1" parent="wqdF_NPgMBwFlqjRqUC3-1">
                    <mxGeometry x="460" y="360" width="100" height="40" as="geometry"/>
                </mxCell>
                <mxCell id="OOpMgrXezNRe1YiRCZjl-1" value="Name" style="ellipse;whiteSpace=wrap;html=1;align=center;" vertex="1" parent="wqdF_NPgMBwFlqjRqUC3-1">
                    <mxGeometry x="610" y="310" width="100" height="40" as="geometry"/>
                </mxCell>
                <mxCell id="OOpMgrXezNRe1YiRCZjl-2" value="" style="endArrow=none;html=1;rounded=0;entryX=0;entryY=1;entryDx=0;entryDy=0;exitX=1;exitY=0.5;exitDx=0;exitDy=0;" edge="1" parent="wqdF_NPgMBwFlqjRqUC3-1" source="OOpMgrXezNRe1YiRCZjl-0" target="OOpMgrXezNRe1YiRCZjl-1">
                    <mxGeometry relative="1" as="geometry">
                        <mxPoint x="621" y="390" as="sourcePoint"/>
                        <mxPoint x="951" y="590" as="targetPoint"/>
                    </mxGeometry>
                </mxCell>
                <mxCell id="OOpMgrXezNRe1YiRCZjl-3" value="PathImage" style="ellipse;whiteSpace=wrap;html=1;align=center;" vertex="1" parent="wqdF_NPgMBwFlqjRqUC3-1">
                    <mxGeometry x="710" y="350" width="100" height="40" as="geometry"/>
                </mxCell>
                <mxCell id="OOpMgrXezNRe1YiRCZjl-4" value="" style="endArrow=none;html=1;rounded=0;entryX=0;entryY=0.5;entryDx=0;entryDy=0;exitX=1;exitY=0.5;exitDx=0;exitDy=0;" edge="1" parent="wqdF_NPgMBwFlqjRqUC3-1" source="OOpMgrXezNRe1YiRCZjl-0" target="OOpMgrXezNRe1YiRCZjl-3">
                    <mxGeometry relative="1" as="geometry">
                        <mxPoint x="621" y="390" as="sourcePoint"/>
                        <mxPoint x="961" y="610" as="targetPoint"/>
                    </mxGeometry>
                </mxCell>
                <mxCell id="OOpMgrXezNRe1YiRCZjl-5" value="UrlLink" style="ellipse;whiteSpace=wrap;html=1;align=center;" vertex="1" parent="wqdF_NPgMBwFlqjRqUC3-1">
                    <mxGeometry x="710" y="410" width="100" height="40" as="geometry"/>
                </mxCell>
                <mxCell id="OOpMgrXezNRe1YiRCZjl-6" value="" style="endArrow=none;html=1;rounded=0;entryX=0;entryY=0.5;entryDx=0;entryDy=0;exitX=1;exitY=0.5;exitDx=0;exitDy=0;" edge="1" parent="wqdF_NPgMBwFlqjRqUC3-1" source="OOpMgrXezNRe1YiRCZjl-0" target="OOpMgrXezNRe1YiRCZjl-5">
                    <mxGeometry relative="1" as="geometry">
                        <mxPoint x="621" y="390" as="sourcePoint"/>
                        <mxPoint x="971" y="670" as="targetPoint"/>
                    </mxGeometry>
                </mxCell>
                <mxCell id="OOpMgrXezNRe1YiRCZjl-7" value="Description" style="ellipse;whiteSpace=wrap;html=1;align=center;" vertex="1" parent="wqdF_NPgMBwFlqjRqUC3-1">
                    <mxGeometry x="610" y="440" width="100" height="40" as="geometry"/>
                </mxCell>
                <mxCell id="OOpMgrXezNRe1YiRCZjl-8" value="" style="endArrow=none;html=1;rounded=0;entryX=0.288;entryY=0.095;entryDx=0;entryDy=0;exitX=1;exitY=0.5;exitDx=0;exitDy=0;entryPerimeter=0;" edge="1" parent="wqdF_NPgMBwFlqjRqUC3-1" source="OOpMgrXezNRe1YiRCZjl-0" target="OOpMgrXezNRe1YiRCZjl-7">
                    <mxGeometry relative="1" as="geometry">
                        <mxPoint x="621" y="390" as="sourcePoint"/>
                        <mxPoint x="901" y="710" as="targetPoint"/>
                    </mxGeometry>
                </mxCell>
                <mxCell id="ymozetPD7AD9OefXtBLt-0" value="" style="edgeStyle=entityRelationEdgeStyle;fontSize=12;html=1;endArrow=ERoneToMany;entryX=0.5;entryY=0;entryDx=0;entryDy=0;exitX=0.5;exitY=1;exitDx=0;exitDy=0;" edge="1" parent="wqdF_NPgMBwFlqjRqUC3-1" source="ifzj-vKe0jPdRV8vJmEl-0" target="OOpMgrXezNRe1YiRCZjl-0">
                    <mxGeometry width="100" height="100" relative="1" as="geometry">
                        <mxPoint x="341" y="390" as="sourcePoint"/>
                        <mxPoint x="441" y="550" as="targetPoint"/>
                    </mxGeometry>
                </mxCell>
                <mxCell id="R1GcWMi6mItRPCoGwdgi-0" value="Skill" style="whiteSpace=wrap;html=1;align=center;" vertex="1" parent="wqdF_NPgMBwFlqjRqUC3-1">
                    <mxGeometry x="260" y="360" width="100" height="40" as="geometry"/>
                </mxCell>
                <mxCell id="R1GcWMi6mItRPCoGwdgi-1" value="Name" style="ellipse;whiteSpace=wrap;html=1;align=center;" vertex="1" parent="wqdF_NPgMBwFlqjRqUC3-1">
                    <mxGeometry x="90" y="270" width="100" height="40" as="geometry"/>
                </mxCell>
                <mxCell id="R1GcWMi6mItRPCoGwdgi-2" value="" style="endArrow=none;html=1;rounded=0;entryX=1;entryY=1;entryDx=0;entryDy=0;exitX=0;exitY=0.5;exitDx=0;exitDy=0;" edge="1" parent="wqdF_NPgMBwFlqjRqUC3-1" source="R1GcWMi6mItRPCoGwdgi-0" target="R1GcWMi6mItRPCoGwdgi-1">
                    <mxGeometry relative="1" as="geometry">
                        <mxPoint x="260" y="330" as="sourcePoint"/>
                        <mxPoint x="630" y="570" as="targetPoint"/>
                    </mxGeometry>
                </mxCell>
                <mxCell id="R1GcWMi6mItRPCoGwdgi-3" value="PathImage" style="ellipse;whiteSpace=wrap;html=1;align=center;" vertex="1" parent="wqdF_NPgMBwFlqjRqUC3-1">
                    <mxGeometry x="10" y="330" width="100" height="40" as="geometry"/>
                </mxCell>
                <mxCell id="R1GcWMi6mItRPCoGwdgi-4" value="" style="endArrow=none;html=1;rounded=0;exitX=0;exitY=0.5;exitDx=0;exitDy=0;entryX=1;entryY=0.5;entryDx=0;entryDy=0;" edge="1" parent="wqdF_NPgMBwFlqjRqUC3-1" source="R1GcWMi6mItRPCoGwdgi-0" target="R1GcWMi6mItRPCoGwdgi-3">
                    <mxGeometry relative="1" as="geometry">
                        <mxPoint x="340" y="300" as="sourcePoint"/>
                        <mxPoint x="130" y="340" as="targetPoint"/>
                    </mxGeometry>
                </mxCell>
                <mxCell id="R1GcWMi6mItRPCoGwdgi-7" value="Description" style="ellipse;whiteSpace=wrap;html=1;align=center;" vertex="1" parent="wqdF_NPgMBwFlqjRqUC3-1">
                    <mxGeometry x="140" y="470" width="100" height="40" as="geometry"/>
                </mxCell>
                <mxCell id="R1GcWMi6mItRPCoGwdgi-8" value="" style="endArrow=none;html=1;rounded=0;entryX=0.5;entryY=0;entryDx=0;entryDy=0;exitX=0;exitY=0.5;exitDx=0;exitDy=0;" edge="1" parent="wqdF_NPgMBwFlqjRqUC3-1" source="R1GcWMi6mItRPCoGwdgi-0" target="R1GcWMi6mItRPCoGwdgi-7">
                    <mxGeometry relative="1" as="geometry">
                        <mxPoint x="230" y="390" as="sourcePoint"/>
                        <mxPoint x="580" y="690" as="targetPoint"/>
                    </mxGeometry>
                </mxCell>
                <mxCell id="R1GcWMi6mItRPCoGwdgi-9" value="UrlLink" style="ellipse;whiteSpace=wrap;html=1;align=center;" vertex="1" parent="wqdF_NPgMBwFlqjRqUC3-1">
                    <mxGeometry x="10" y="380" width="100" height="40" as="geometry"/>
                </mxCell>
                <mxCell id="R1GcWMi6mItRPCoGwdgi-10" value="" style="endArrow=none;html=1;rounded=0;entryX=1;entryY=0.5;entryDx=0;entryDy=0;exitX=0;exitY=0.5;exitDx=0;exitDy=0;" edge="1" parent="wqdF_NPgMBwFlqjRqUC3-1" source="R1GcWMi6mItRPCoGwdgi-0" target="R1GcWMi6mItRPCoGwdgi-9">
                    <mxGeometry relative="1" as="geometry">
                        <mxPoint x="250" y="390" as="sourcePoint"/>
                        <mxPoint x="105.35533905932743" y="385.85786437626894" as="targetPoint"/>
                    </mxGeometry>
                </mxCell>
                <mxCell id="R1GcWMi6mItRPCoGwdgi-11" value="Category" style="ellipse;whiteSpace=wrap;html=1;align=center;" vertex="1" parent="wqdF_NPgMBwFlqjRqUC3-1">
                    <mxGeometry x="40" y="440" width="100" height="40" as="geometry"/>
                </mxCell>
                <mxCell id="R1GcWMi6mItRPCoGwdgi-12" value="" style="endArrow=none;html=1;rounded=0;entryX=1;entryY=0.5;entryDx=0;entryDy=0;exitX=0;exitY=0.5;exitDx=0;exitDy=0;" edge="1" parent="wqdF_NPgMBwFlqjRqUC3-1" source="R1GcWMi6mItRPCoGwdgi-0" target="R1GcWMi6mItRPCoGwdgi-11">
                    <mxGeometry relative="1" as="geometry">
                        <mxPoint x="270" y="370" as="sourcePoint"/>
                        <mxPoint x="378.79999999999995" y="423.79999999999995" as="targetPoint"/>
                    </mxGeometry>
                </mxCell>
                <mxCell id="R1GcWMi6mItRPCoGwdgi-13" value="" style="edgeStyle=entityRelationEdgeStyle;fontSize=12;html=1;endArrow=ERoneToMany;entryX=0.5;entryY=0;entryDx=0;entryDy=0;exitX=0.5;exitY=1;exitDx=0;exitDy=0;" edge="1" parent="wqdF_NPgMBwFlqjRqUC3-1" source="ifzj-vKe0jPdRV8vJmEl-0" target="R1GcWMi6mItRPCoGwdgi-0">
                    <mxGeometry width="100" height="100" relative="1" as="geometry">
                        <mxPoint x="420" y="260" as="sourcePoint"/>
                        <mxPoint x="581" y="380" as="targetPoint"/>
                    </mxGeometry>
                </mxCell>
                <mxCell id="D-go4psxo-2pth6fd8-c-0" value="Front, Back, FullStack, Design, DB" style="ellipse;shape=cloud;whiteSpace=wrap;html=1;align=center;" vertex="1" parent="wqdF_NPgMBwFlqjRqUC3-1">
                    <mxGeometry x="490" width="280" height="80" as="geometry"/>
                </mxCell>
                <mxCell id="D-go4psxo-2pth6fd8-c-1" value="" style="endArrow=none;html=1;rounded=0;entryX=0.13;entryY=0.77;entryDx=0;entryDy=0;entryPerimeter=0;exitX=0.5;exitY=0;exitDx=0;exitDy=0;" edge="1" parent="wqdF_NPgMBwFlqjRqUC3-1" source="ifzj-vKe0jPdRV8vJmEl-5" target="D-go4psxo-2pth6fd8-c-0">
                    <mxGeometry relative="1" as="geometry">
                        <mxPoint x="330" y="430" as="sourcePoint"/>
                        <mxPoint x="490" y="430" as="targetPoint"/>
                    </mxGeometry>
                </mxCell>
                <mxCell id="D-go4psxo-2pth6fd8-c-2" value="Technology, Outil, Method" style="ellipse;shape=cloud;whiteSpace=wrap;html=1;align=center;" vertex="1" parent="wqdF_NPgMBwFlqjRqUC3-1">
                    <mxGeometry x="20" y="530" width="230" height="80" as="geometry"/>
                </mxCell>
                <mxCell id="2VEaWmozPeNCqfu06PGX-0" value="" style="endArrow=none;html=1;rounded=0;entryX=0.4;entryY=0.1;entryDx=0;entryDy=0;entryPerimeter=0;exitX=0.5;exitY=1;exitDx=0;exitDy=0;" edge="1" parent="wqdF_NPgMBwFlqjRqUC3-1" source="R1GcWMi6mItRPCoGwdgi-11" target="D-go4psxo-2pth6fd8-c-2">
                    <mxGeometry relative="1" as="geometry">
                        <mxPoint x="490" y="80" as="sourcePoint"/>
                        <mxPoint x="540.3" y="71.60000000000002" as="targetPoint"/>
                    </mxGeometry>
                </mxCell>
                <mxCell id="nKfd2jA9SMJvFzRu4yWa-0" value="Category" style="ellipse;whiteSpace=wrap;html=1;align=center;" vertex="1" parent="wqdF_NPgMBwFlqjRqUC3-1">
                    <mxGeometry x="510" y="210" width="100" height="40" as="geometry"/>
                </mxCell>
                <mxCell id="nKfd2jA9SMJvFzRu4yWa-1" value="Online, Offline" style="ellipse;shape=cloud;whiteSpace=wrap;html=1;align=center;" vertex="1" parent="wqdF_NPgMBwFlqjRqUC3-1">
                    <mxGeometry x="630" y="150" width="170" height="80" as="geometry"/>
                </mxCell>
                <mxCell id="nKfd2jA9SMJvFzRu4yWa-2" value="" style="endArrow=none;html=1;rounded=0;entryX=0.13;entryY=0.77;entryDx=0;entryDy=0;entryPerimeter=0;exitX=1;exitY=0.5;exitDx=0;exitDy=0;" edge="1" parent="wqdF_NPgMBwFlqjRqUC3-1" source="nKfd2jA9SMJvFzRu4yWa-0" target="nKfd2jA9SMJvFzRu4yWa-1">
                    <mxGeometry relative="1" as="geometry">
                        <mxPoint x="410" y="570" as="sourcePoint"/>
                        <mxPoint x="570" y="570" as="targetPoint"/>
                    </mxGeometry>
                </mxCell>
                <mxCell id="nKfd2jA9SMJvFzRu4yWa-3" value="" style="endArrow=none;html=1;rounded=0;entryX=0;entryY=0.5;entryDx=0;entryDy=0;exitX=1;exitY=0.5;exitDx=0;exitDy=0;" edge="1" parent="wqdF_NPgMBwFlqjRqUC3-1" source="ifzj-vKe0jPdRV8vJmEl-0" target="nKfd2jA9SMJvFzRu4yWa-0">
                    <mxGeometry relative="1" as="geometry">
                        <mxPoint x="470" y="240" as="sourcePoint"/>
                        <mxPoint x="544.6446609406726" y="174.14213562373106" as="targetPoint"/>
                    </mxGeometry>
                </mxCell>
            </root>
        </mxGraphModel>
    </diagram>
    <diagram id="STvmIZ0PpXuFzfDI6sSb" name="Recomendation">
        <mxGraphModel dx="1168" dy="863" grid="1" gridSize="10" guides="1" tooltips="1" connect="1" arrows="1" fold="1" page="1" pageScale="1" pageWidth="827" pageHeight="1169" math="0" shadow="0">
            <root>
                <mxCell id="uoQzVX-W4dcWHILvLzwj-0"/>
                <mxCell id="uoQzVX-W4dcWHILvLzwj-1" parent="uoQzVX-W4dcWHILvLzwj-0"/>
                <mxCell id="wyuPtL2sA4NRuktySe1t-0" value="Recomendation" style="whiteSpace=wrap;html=1;align=center;" vertex="1" parent="uoQzVX-W4dcWHILvLzwj-1">
                    <mxGeometry x="200" y="200" width="100" height="40" as="geometry"/>
                </mxCell>
                <mxCell id="wyuPtL2sA4NRuktySe1t-1" value="Name" style="ellipse;whiteSpace=wrap;html=1;align=center;" vertex="1" parent="uoQzVX-W4dcWHILvLzwj-1">
                    <mxGeometry x="350" y="140" width="100" height="40" as="geometry"/>
                </mxCell>
                <mxCell id="wyuPtL2sA4NRuktySe1t-2" value="" style="endArrow=none;html=1;rounded=0;entryX=0;entryY=1;entryDx=0;entryDy=0;exitX=1;exitY=0.5;exitDx=0;exitDy=0;" edge="1" parent="uoQzVX-W4dcWHILvLzwj-1" source="wyuPtL2sA4NRuktySe1t-0" target="wyuPtL2sA4NRuktySe1t-1">
                    <mxGeometry relative="1" as="geometry">
                        <mxPoint x="300" y="220" as="sourcePoint"/>
                        <mxPoint x="630" y="420" as="targetPoint"/>
                    </mxGeometry>
                </mxCell>
                <mxCell id="wyuPtL2sA4NRuktySe1t-3" value="PathImage" style="ellipse;whiteSpace=wrap;html=1;align=center;" vertex="1" parent="uoQzVX-W4dcWHILvLzwj-1">
                    <mxGeometry x="450" y="180" width="100" height="40" as="geometry"/>
                </mxCell>
                <mxCell id="wyuPtL2sA4NRuktySe1t-4" value="" style="endArrow=none;html=1;rounded=0;entryX=0;entryY=0.5;entryDx=0;entryDy=0;exitX=1;exitY=0.5;exitDx=0;exitDy=0;" edge="1" parent="uoQzVX-W4dcWHILvLzwj-1" source="wyuPtL2sA4NRuktySe1t-0" target="wyuPtL2sA4NRuktySe1t-3">
                    <mxGeometry relative="1" as="geometry">
                        <mxPoint x="300" y="220" as="sourcePoint"/>
                        <mxPoint x="640" y="440" as="targetPoint"/>
                    </mxGeometry>
                </mxCell>
                <mxCell id="wyuPtL2sA4NRuktySe1t-5" value="UrlLink" style="ellipse;whiteSpace=wrap;html=1;align=center;" vertex="1" parent="uoQzVX-W4dcWHILvLzwj-1">
                    <mxGeometry x="450" y="240" width="100" height="40" as="geometry"/>
                </mxCell>
                <mxCell id="wyuPtL2sA4NRuktySe1t-6" value="" style="endArrow=none;html=1;rounded=0;entryX=0;entryY=0.5;entryDx=0;entryDy=0;exitX=1;exitY=0.5;exitDx=0;exitDy=0;" edge="1" parent="uoQzVX-W4dcWHILvLzwj-1" source="wyuPtL2sA4NRuktySe1t-0" target="wyuPtL2sA4NRuktySe1t-5">
                    <mxGeometry relative="1" as="geometry">
                        <mxPoint x="300" y="220" as="sourcePoint"/>
                        <mxPoint x="650" y="500" as="targetPoint"/>
                    </mxGeometry>
                </mxCell>
                <mxCell id="wyuPtL2sA4NRuktySe1t-7" value="Description" style="ellipse;whiteSpace=wrap;html=1;align=center;" vertex="1" parent="uoQzVX-W4dcWHILvLzwj-1">
                    <mxGeometry x="350" y="280" width="100" height="40" as="geometry"/>
                </mxCell>
                <mxCell id="wyuPtL2sA4NRuktySe1t-8" value="" style="endArrow=none;html=1;rounded=0;entryX=0.288;entryY=0.095;entryDx=0;entryDy=0;exitX=1;exitY=0.5;exitDx=0;exitDy=0;entryPerimeter=0;" edge="1" parent="uoQzVX-W4dcWHILvLzwj-1" source="wyuPtL2sA4NRuktySe1t-0" target="wyuPtL2sA4NRuktySe1t-7">
                    <mxGeometry relative="1" as="geometry">
                        <mxPoint x="300" y="220" as="sourcePoint"/>
                        <mxPoint x="580" y="540" as="targetPoint"/>
                    </mxGeometry>
                </mxCell>
                <mxCell id="wyuPtL2sA4NRuktySe1t-9" value="Business" style="ellipse;whiteSpace=wrap;html=1;align=center;" vertex="1" parent="uoQzVX-W4dcWHILvLzwj-1">
                    <mxGeometry x="80" y="290" width="100" height="40" as="geometry"/>
                </mxCell>
                <mxCell id="wyuPtL2sA4NRuktySe1t-10" value="" style="endArrow=none;html=1;rounded=0;entryX=0.692;entryY=-0.015;entryDx=0;entryDy=0;exitX=0.25;exitY=1;exitDx=0;exitDy=0;entryPerimeter=0;" edge="1" parent="uoQzVX-W4dcWHILvLzwj-1" target="wyuPtL2sA4NRuktySe1t-9" source="wyuPtL2sA4NRuktySe1t-0">
                    <mxGeometry relative="1" as="geometry">
                        <mxPoint x="30" y="230" as="sourcePoint"/>
                        <mxPoint x="310" y="550" as="targetPoint"/>
                    </mxGeometry>
                </mxCell>
                <mxCell id="wyuPtL2sA4NRuktySe1t-11" value="Charge" style="ellipse;whiteSpace=wrap;html=1;align=center;" vertex="1" parent="uoQzVX-W4dcWHILvLzwj-1">
                    <mxGeometry x="220" y="290" width="100" height="40" as="geometry"/>
                </mxCell>
                <mxCell id="wyuPtL2sA4NRuktySe1t-12" value="" style="endArrow=none;html=1;rounded=0;entryX=0.5;entryY=0;entryDx=0;entryDy=0;exitX=0.5;exitY=1;exitDx=0;exitDy=0;" edge="1" parent="uoQzVX-W4dcWHILvLzwj-1" target="wyuPtL2sA4NRuktySe1t-11" source="wyuPtL2sA4NRuktySe1t-0">
                    <mxGeometry relative="1" as="geometry">
                        <mxPoint x="175" y="230" as="sourcePoint"/>
                        <mxPoint x="455" y="550" as="targetPoint"/>
                    </mxGeometry>
                </mxCell>
            </root>
        </mxGraphModel>
    </diagram>
</mxfile>